<svg version="1.1" id="Layer_1" xmlns="http://www.w3.org/2000/svg" xmlns:xlink="http://www.w3.org/1999/xlink" x="0px" y="0px"
	 width="100%" viewBox="0 0 500 500" enable-background="new 0 0 500 500" xml:space="preserve">
<path fill="#FFFFFF" opacity="1.000000" stroke="none" 
	d="
M468.000000,501.000000 
	C312.000031,501.000000 156.500076,501.000000 1.000083,501.000000 
	C1.000056,334.333405 1.000056,167.666824 1.000028,1.000173 
	C167.666550,1.000115 334.333099,1.000115 500.999756,1.000058 
	C500.999817,167.666519 500.999817,334.333038 500.999908,500.999756 
	C490.166656,501.000000 479.333344,501.000000 468.000000,501.000000 
M101.506020,296.002075 
	C107.626671,296.002075 113.747330,296.002075 119.988968,296.002075 
	C119.988968,273.450745 119.988968,251.409668 119.988968,229.332642 
	C110.615387,229.332642 101.556564,229.332642 91.917801,229.332642 
	C91.917801,243.977661 91.917801,258.294434 91.917801,273.648743 
	C79.707993,259.107880 68.281212,245.457809 56.777218,231.873093 
	C55.782585,230.698547 54.294025,229.164856 53.006924,229.138000 
	C42.419521,228.916977 31.825500,229.013184 21.347565,229.013184 
	C21.347565,251.705276 21.347565,273.759674 21.347565,295.623352 
	C30.779251,295.623352 39.847305,295.623352 49.190056,295.623352 
	C49.190056,280.828125 49.190056,266.409698 49.190056,251.092010 
	C50.494831,252.535980 51.250992,253.319321 51.947948,254.152191 
	C60.712978,264.626648 70.025642,274.703552 78.043396,285.722473 
	C83.932098,293.815430 90.579659,297.885529 101.506020,296.002075 
M453.792816,245.832352 
	C458.079681,245.551300 462.100830,246.041656 465.287415,249.406158 
	C465.795380,249.942459 466.746857,250.321472 467.496216,250.326447 
	C476.772400,250.387985 486.049194,250.366623 495.764984,250.366623 
	C493.016785,238.877808 485.720367,232.724716 475.443939,230.027283 
	C462.173218,226.543884 448.712280,226.587875 435.444336,230.054977 
	C425.677460,232.607208 418.561737,238.454910 415.643616,248.567612 
	C413.810211,254.921265 415.673492,260.708984 421.225677,264.245148 
	C423.841309,265.911011 426.842010,267.436523 429.848938,267.934509 
	C438.034027,269.290009 446.319427,270.032959 454.557037,271.081787 
	C458.460327,271.578766 462.345306,272.219635 466.857452,272.886780 
	C461.798553,279.975555 453.140137,281.227936 447.091522,276.868103 
	C446.043396,276.112610 444.909576,274.914490 443.798889,274.895782 
	C434.402740,274.737335 425.002747,274.805298 415.265320,274.805298 
	C417.980621,285.991669 424.983673,292.169647 434.910614,294.885986 
	C448.477051,298.598175 462.300934,298.741608 475.829285,294.850403 
	C480.450287,293.521210 485.184601,290.918304 488.677338,287.632568 
	C501.475922,275.592590 497.953308,261.227142 480.976166,257.126740 
	C471.345062,254.800583 461.250397,254.404251 451.371979,253.083038 
	C449.207550,252.793518 447.074768,252.267120 444.927429,251.849823 
	C444.784790,251.192291 444.642181,250.534760 444.499542,249.877228 
	C447.313416,248.552872 450.127319,247.228500 453.792816,245.832352 
M153.500641,228.992661 
	C147.426926,228.992661 141.353195,228.992661 135.380905,228.992661 
	C135.380905,251.726410 135.380905,273.640900 135.380905,295.666199 
	C162.329010,295.666199 189.013901,295.666199 215.594315,295.666199 
	C215.594315,290.094910 215.594315,284.874237 215.594315,279.069641 
	C198.022705,279.069641 180.810104,279.069641 163.691437,279.069641 
	C163.691437,275.406128 163.691437,272.349548 163.691437,268.885803 
	C177.473022,268.885803 190.890442,268.885803 204.416763,268.885803 
	C204.416763,264.403717 204.416763,260.357697 204.416763,255.931396 
	C190.617966,255.931396 177.173843,255.931396 163.582764,255.931396 
	C163.582764,252.457840 163.582764,249.373306 163.582764,245.584351 
	C179.845856,245.584351 195.866348,245.584351 211.773529,245.584351 
	C211.773529,239.645615 211.773529,234.421768 211.773529,228.992661 
	C192.430481,228.992661 173.465469,228.992661 153.500641,228.992661 
M329.558228,229.018646 
	C326.809326,229.018646 324.060425,229.018646 321.200348,229.018646 
	C321.200348,241.791901 320.783936,253.793045 321.300812,265.753876 
	C322.023132,282.468658 330.196320,292.140564 346.205780,295.645905 
	C358.213379,298.274963 370.394379,298.296661 382.393005,295.541382 
	C398.578674,291.824615 406.710175,281.577759 406.971741,264.929535 
	C407.144470,253.936005 407.036255,242.937866 407.016998,231.941833 
	C407.015381,231.014923 406.733795,230.088501 406.623505,229.414154 
	C397.219666,229.414154 388.157654,229.414154 378.969055,229.414154 
	C378.969055,236.470901 379.048859,243.133881 378.945709,249.794022 
	C378.850464,255.942642 379.110962,262.169586 378.219543,268.215271 
	C377.002655,276.468140 372.227448,279.614166 363.235107,279.323547 
	C355.086853,279.060211 350.499481,275.543152 349.938599,267.452362 
	C349.191345,256.673065 349.417877,245.826019 349.238159,235.007874 
	C349.206421,233.097366 349.233643,231.185867 349.233643,229.018646 
	C342.502838,229.018646 336.523895,229.018646 329.558228,229.018646 
M314.406830,294.088226 
	C303.866119,283.000305 293.325409,271.912384 282.639038,260.671204 
	C293.062347,250.877258 304.274689,240.341904 316.329437,229.015015 
	C307.153992,229.015015 299.204987,228.844284 291.272644,229.131882 
	C289.221832,229.206223 286.744720,230.229141 285.285431,231.656616 
	C279.716766,237.103882 274.483765,242.894318 268.238403,249.493835 
	C262.121552,242.936493 256.833557,237.165192 251.401901,231.532425 
	C250.330688,230.421555 248.723267,229.167694 247.333481,229.131943 
	C238.765625,228.911514 230.189270,229.021286 220.419937,229.021286 
	C232.555573,240.416336 243.777390,250.953354 255.381760,261.849579 
	C244.212021,273.549500 233.285370,284.994812 222.772690,296.006500 
	C229.609116,296.006500 237.440796,296.209534 245.249466,295.875244 
	C247.420197,295.782288 249.997833,294.585724 251.571442,293.055145 
	C257.286652,287.496216 262.655060,281.580719 268.410767,275.530090 
	C274.243744,281.698151 279.771729,287.670898 285.476135,293.470123 
	C286.636963,294.650269 288.441132,295.844543 289.984253,295.892700 
	C297.809296,296.136810 305.646332,296.030060 313.478088,295.945404 
	C313.957275,295.940247 314.427094,295.068878 314.406830,294.088226 
z"/>
<path fill="#FF3232" opacity="1.000000" stroke="none" 
	d="
M101.007797,296.002075 
	C90.579659,297.885529 83.932098,293.815430 78.043396,285.722473 
	C70.025642,274.703552 60.712978,264.626648 51.947948,254.152191 
	C51.250992,253.319321 50.494831,252.535980 49.190056,251.092010 
	C49.190056,266.409698 49.190056,280.828125 49.190056,295.623352 
	C39.847305,295.623352 30.779251,295.623352 21.347565,295.623352 
	C21.347565,273.759674 21.347565,251.705276 21.347565,229.013184 
	C31.825500,229.013184 42.419521,228.916977 53.006924,229.138000 
	C54.294025,229.164856 55.782585,230.698547 56.777218,231.873093 
	C68.281212,245.457809 79.707993,259.107880 91.917801,273.648743 
	C91.917801,258.294434 91.917801,243.977661 91.917801,229.332642 
	C101.556564,229.332642 110.615387,229.332642 119.988968,229.332642 
	C119.988968,251.409668 119.988968,273.450745 119.988968,296.002075 
	C113.747330,296.002075 107.626671,296.002075 101.007797,296.002075 
z"/>
<path fill="#FF3333" opacity="1.000000" stroke="none" 
	d="
M453.367004,245.868256 
	C450.127319,247.228500 447.313416,248.552872 444.499542,249.877228 
	C444.642181,250.534760 444.784790,251.192291 444.927429,251.849823 
	C447.074768,252.267120 449.207550,252.793518 451.371979,253.083038 
	C461.250397,254.404251 471.345062,254.800583 480.976166,257.126740 
	C497.953308,261.227142 501.475922,275.592590 488.677338,287.632568 
	C485.184601,290.918304 480.450287,293.521210 475.829285,294.850403 
	C462.300934,298.741608 448.477051,298.598175 434.910614,294.885986 
	C424.983673,292.169647 417.980621,285.991669 415.265320,274.805298 
	C425.002747,274.805298 434.402740,274.737335 443.798889,274.895782 
	C444.909576,274.914490 446.043396,276.112610 447.091522,276.868103 
	C453.140137,281.227936 461.798553,279.975555 466.857452,272.886780 
	C462.345306,272.219635 458.460327,271.578766 454.557037,271.081787 
	C446.319427,270.032959 438.034027,269.290009 429.848938,267.934509 
	C426.842010,267.436523 423.841309,265.911011 421.225677,264.245148 
	C415.673492,260.708984 413.810211,254.921265 415.643616,248.567612 
	C418.561737,238.454910 425.677460,232.607208 435.444336,230.054977 
	C448.712280,226.587875 462.173218,226.543884 475.443939,230.027283 
	C485.720367,232.724716 493.016785,238.877808 495.764984,250.366623 
	C486.049194,250.366623 476.772400,250.387985 467.496216,250.326447 
	C466.746857,250.321472 465.795380,249.942459 465.287415,249.406158 
	C462.100830,246.041656 458.079681,245.551300 453.367004,245.868256 
z"/>
<path fill="#FF3434" opacity="1.000000" stroke="none" 
	d="
M154.000549,228.992661 
	C173.465469,228.992661 192.430481,228.992661 211.773529,228.992661 
	C211.773529,234.421768 211.773529,239.645615 211.773529,245.584351 
	C195.866348,245.584351 179.845856,245.584351 163.582764,245.584351 
	C163.582764,249.373306 163.582764,252.457840 163.582764,255.931396 
	C177.173843,255.931396 190.617966,255.931396 204.416763,255.931396 
	C204.416763,260.357697 204.416763,264.403717 204.416763,268.885803 
	C190.890442,268.885803 177.473022,268.885803 163.691437,268.885803 
	C163.691437,272.349548 163.691437,275.406128 163.691437,279.069641 
	C180.810104,279.069641 198.022705,279.069641 215.594315,279.069641 
	C215.594315,284.874237 215.594315,290.094910 215.594315,295.666199 
	C189.013901,295.666199 162.329010,295.666199 135.380905,295.666199 
	C135.380905,273.640900 135.380905,251.726410 135.380905,228.992661 
	C141.353195,228.992661 147.426926,228.992661 154.000549,228.992661 
z"/>
<path fill="#FF3232" opacity="1.000000" stroke="none" 
	d="
M330.051575,229.018646 
	C336.523895,229.018646 342.502838,229.018646 349.233643,229.018646 
	C349.233643,231.185867 349.206421,233.097366 349.238159,235.007874 
	C349.417877,245.826019 349.191345,256.673065 349.938599,267.452362 
	C350.499481,275.543152 355.086853,279.060211 363.235107,279.323547 
	C372.227448,279.614166 377.002655,276.468140 378.219543,268.215271 
	C379.110962,262.169586 378.850464,255.942642 378.945709,249.794022 
	C379.048859,243.133881 378.969055,236.470901 378.969055,229.414154 
	C388.157654,229.414154 397.219666,229.414154 406.623505,229.414154 
	C406.733795,230.088501 407.015381,231.014923 407.016998,231.941833 
	C407.036255,242.937866 407.144470,253.936005 406.971741,264.929535 
	C406.710175,281.577759 398.578674,291.824615 382.393005,295.541382 
	C370.394379,298.296661 358.213379,298.274963 346.205780,295.645905 
	C330.196320,292.140564 322.023132,282.468658 321.300812,265.753876 
	C320.783936,253.793045 321.200348,241.791901 321.200348,229.018646 
	C324.060425,229.018646 326.809326,229.018646 330.051575,229.018646 
z"/>
<path fill="#FF3434" opacity="1.000000" stroke="none" 
	d="
M314.654053,294.344421 
	C314.427094,295.068878 313.957275,295.940247 313.478088,295.945404 
	C305.646332,296.030060 297.809296,296.136810 289.984253,295.892700 
	C288.441132,295.844543 286.636963,294.650269 285.476135,293.470123 
	C279.771729,287.670898 274.243744,281.698151 268.410767,275.530090 
	C262.655060,281.580719 257.286652,287.496216 251.571442,293.055145 
	C249.997833,294.585724 247.420197,295.782288 245.249466,295.875244 
	C237.440796,296.209534 229.609116,296.006500 222.772690,296.006500 
	C233.285370,284.994812 244.212021,273.549500 255.381760,261.849579 
	C243.777390,250.953354 232.555573,240.416336 220.419937,229.021286 
	C230.189270,229.021286 238.765625,228.911514 247.333481,229.131943 
	C248.723267,229.167694 250.330688,230.421555 251.401901,231.532425 
	C256.833557,237.165192 262.121552,242.936493 268.238403,249.493835 
	C274.483765,242.894318 279.716766,237.103882 285.285431,231.656616 
	C286.744720,230.229141 289.221832,229.206223 291.272644,229.131882 
	C299.204987,228.844284 307.153992,229.015015 316.329437,229.015015 
	C304.274689,240.341904 293.062347,250.877258 282.639038,260.671204 
	C293.325409,271.912384 303.866119,283.000305 314.654053,294.344421 
z"/>
</svg>