<?xml version="1.0" encoding="UTF-8"?>
<svg version="1.1" xmlns="http://www.w3.org/2000/svg" width="500" height="500">
<path d="M0 0 C165 0 330 0 500 0 C500 165 500 330 500 500 C335 500 170 500 0 500 C0 335 0 170 0 0 Z " fill="#FFFEFE" transform="translate(0,0)"/>
<path d="M0 0 C32.83443566 -1.76800807 32.83443566 -1.76800807 38.61328125 2.73046875 C41.26676308 5.55833143 43.20561385 8.73915278 44.99658203 12.16650391 C46.49378012 14.90226003 48.46877746 17.14490835 50.5 19.5 C51.20382813 20.36753906 51.90765625 21.23507813 52.6328125 22.12890625 C56.00261348 26.2160411 59.46003399 30.22625624 62.92773438 34.23046875 C63.41306641 34.7925 63.89839844 35.35453125 64.3984375 35.93359375 C64.82817871 36.42915771 65.25791992 36.92472168 65.70068359 37.43530273 C67.19816061 39.23863423 68.59358644 41.12478193 70 43 C70.33 28.81 70.66 14.62 71 0 C80.24 0 89.48 0 99 0 C99 22.11 99 44.22 99 67 C88.11 67 77.22 67 66 67 C60.26269051 60.68895956 54.75150265 54.56369689 49.42578125 47.9609375 C46.1386661 43.94864558 42.74760752 40.02894387 39.33642578 36.12182617 C35.65340557 31.86945319 32.39926805 27.5323574 29 23 C28.67 37.52 28.34 52.04 28 67 C18.76 67 9.52 67 0 67 C0 44.89 0 22.78 0 0 Z " fill="#FF3232" transform="translate(20,228)"/>
<path d="M0 0 C25.41 0 50.82 0 77 0 C77 5.61 77 11.22 77 17 C61.16 17 45.32 17 29 17 C29 20.3 29 23.6 29 27 C42.53 27 56.06 27 70 27 C70 31.29 70 35.58 70 40 C56.47 40 42.94 40 29 40 C29 43.3 29 46.6 29 50 C46.16 50 63.32 50 81 50 C81 55.61 81 61.22 81 67 C54.27 67 27.54 67 0 67 C0 44.89 0 22.78 0 0 Z " fill="#FF3434" transform="translate(134,228)"/>
<path d="M0 0 C1.10666016 0.00563965 2.21332031 0.0112793 3.35351562 0.01708984 C15.19710101 0.19310546 25.41951589 1.31494219 34.75 9.3125 C38.64315795 13.50513164 40.75 16.54797925 40.75 22.3125 C36.55081815 22.38680494 32.35198726 22.44117413 28.15234375 22.47729492 C26.72454154 22.49235681 25.2967854 22.51281062 23.86914062 22.53881836 C21.81368627 22.57531842 19.75884495 22.59225166 17.703125 22.60546875 C16.46723633 22.6211792 15.23134766 22.63688965 13.95800781 22.65307617 C10.48423222 22.28428493 9.32352973 21.55181923 6.75 19.3125 C4.07266535 18.84006353 4.07266535 18.84006353 1.25 18.9375 C0.3115625 18.92976563 -0.626875 18.92203125 -1.59375 18.9140625 C-4.64181658 19.37127249 -6.04863264 20.18381929 -8.25 22.3125 C-8.25 22.9725 -8.25 23.6325 -8.25 24.3125 C-7.62134033 24.35737549 -6.99268066 24.40225098 -6.3449707 24.44848633 C30.9652467 27.18882334 30.9652467 27.18882334 39.8125 35.9375 C42.47026858 40.5671614 42.71761688 44.09680902 41.75 49.3125 C38.73195614 57.59550142 33.08798151 62.89262785 25.25 66.625 C17.32958929 70.1271219 8.48375593 69.55816369 0 69.625 C-1.81757813 69.66850586 -1.81757813 69.66850586 -3.671875 69.71289062 C-14.19224573 69.78657857 -23.21840899 67.7563207 -31.5234375 61.0234375 C-34.38450659 58.18826043 -36.6833517 55.0332897 -38.25 51.3125 C-38.25 49.9925 -38.25 48.6725 -38.25 47.3125 C-34.05081815 47.23819506 -29.85198726 47.18382587 -25.65234375 47.14770508 C-24.22454154 47.13264319 -22.7967854 47.11218938 -21.36914062 47.08618164 C-19.31368627 47.04968158 -17.25884495 47.03274834 -15.203125 47.01953125 C-13.34929199 46.99596558 -13.34929199 46.99596558 -11.45800781 46.97192383 C-7.98423222 47.34071507 -6.82352973 48.07318077 -4.25 50.3125 C-1.57266535 50.78493647 -1.57266535 50.78493647 1.25 50.6875 C2.1884375 50.69523437 3.126875 50.70296875 4.09375 50.7109375 C7.14181658 50.25372751 8.54863264 49.44118071 10.75 47.3125 C10.75 46.6525 10.75 45.9925 10.75 45.3125 C9.79746338 45.20703857 8.84492676 45.10157715 7.86352539 44.99291992 C4.28961063 44.59458366 0.71728054 44.1832932 -2.85473633 43.76831055 C-4.39340342 43.59133565 -5.93246544 43.41775683 -7.47192383 43.24780273 C-29.78418111 40.77831889 -29.78418111 40.77831889 -37.25 33.3125 C-39.80308508 29.03388156 -39.99890078 25.18035509 -39.25 20.3125 C-36.39860996 12.57301275 -31.27894497 7.76490128 -24.375 3.5625 C-16.3846902 0.36637608 -8.53819667 -0.04519614 0 0 Z " fill="#FF3333" transform="translate(453.25,226.6875)"/>
<path d="M0 0 C9.24 0 18.48 0 28 0 C28.02578125 2.63871094 28.0515625 5.27742187 28.078125 7.99609375 C28.1166391 10.57782233 28.1617689 13.15935748 28.20751953 15.7409668 C28.2355845 17.52244691 28.25687039 19.30404819 28.27099609 21.08569336 C27.86802685 34.74909638 27.86802685 34.74909638 33 47 C36.53424712 49.35616475 38.18644102 49.2981228 42.375 49.3125 C43.49648438 49.32925781 44.61796875 49.34601563 45.7734375 49.36328125 C49.41979927 48.95273447 51.16341392 48.31508314 54 46 C57.25735225 40.87664672 57.46721913 36.54158948 57.51171875 30.6640625 C57.52966995 29.78471039 57.54762115 28.90535828 57.56611633 27.99935913 C57.62002812 25.20795395 57.65405329 22.41671789 57.6875 19.625 C57.72069 17.72523698 57.75518121 15.82549623 57.79101562 13.92578125 C57.87817886 9.28383241 57.93840963 4.64263949 58 0 C67.24 0 76.48 0 86 0 C86.04612162 5.53203235 86.08588378 11.06338698 86.10986328 16.59545898 C86.11986873 18.47406282 86.13347733 20.35265129 86.15087891 22.23120117 C86.1753688 24.94453748 86.1865379 27.65766638 86.1953125 30.37109375 C86.20563507 31.19959335 86.21595764 32.02809296 86.22659302 32.88169861 C86.22849388 42.95026383 84.25901582 51.05442859 77.50390625 58.69140625 C67.98553253 67.79891491 54.83904337 68.21576409 42.4375 68.3125 C40.61895508 68.35600586 40.61895508 68.35600586 38.76367188 68.40039062 C27.22689423 68.48080784 16.49590767 66.27907476 8 58 C0.86324439 49.7498375 -0.16238478 41.24859759 -0.09765625 30.6640625 C-0.0962413 29.78471039 -0.09482635 28.90535828 -0.09336853 27.99935913 C-0.08779877 25.20787058 -0.0752519 22.41646406 -0.0625 19.625 C-0.05748109 17.72526158 -0.05291887 15.8255219 -0.04882812 13.92578125 C-0.03869279 9.28379761 -0.01911158 4.64198997 0 0 Z " fill="#FF3232" transform="translate(320,228)"/>
<path d="M0 0 C25.2132554 -2.78274282 25.2132554 -2.78274282 33.5390625 3.4921875 C37.21044631 6.80519328 40.48943882 10.41636934 43.54321289 14.30419922 C45.08155546 16.24914279 45.08155546 16.24914279 48 18 C48.39340576 17.45472656 48.78681152 16.90945312 49.19213867 16.34765625 C60.59811201 1.24510844 60.59811201 1.24510844 69.69873047 -0.85253906 C78.16260431 -1.58634658 86.57909157 -1.01217001 95 0 C92.22764171 3.41876307 89.58418518 6.55753903 86.1875 9.375 C83.32857265 11.81018389 80.63226539 14.32119161 78 17 C74.72420478 20.32738254 71.30421533 23.41300768 67.765625 26.45703125 C65.75058361 28.21796344 63.85305602 30.06973331 62 32 C63.61692982 36.08128672 66.54278929 38.80603092 69.625 41.8125 C70.16697021 42.3480249 70.70894043 42.8835498 71.26733398 43.43530273 C74.70494364 46.80752168 78.24450836 50.01355575 81.91015625 53.13671875 C84.70028403 55.62436539 87.35218711 58.23733036 90 60.875 C90.4937915 61.36427979 90.98758301 61.85355957 91.49633789 62.35766602 C95 65.87621884 95 65.87621884 95 67 C67.79642712 69.08251907 67.79642712 69.08251907 61.87109375 64.57421875 C59.06872871 61.73057501 57.05918121 58.40932476 55 55 C53.65053866 53.53909301 52.26032586 52.11348649 50.8125 50.75 C49.884375 49.8425 48.95625 48.935 48 48 C44.6992076 49.10026413 44.07519718 49.82709337 41.9375 52.4375 C40.98230469 53.50291016 40.98230469 53.50291016 40.0078125 54.58984375 C37.92909536 56.96889468 37.92909536 56.96889468 36.3046875 59.75390625 C33.8754079 63.10250147 31.86615894 65.49826173 28 67 C18.74938893 68.27116278 9.28685444 67.61110097 0 67 C5.13625973 60.73430096 10.80823343 55.03906268 16.54174805 49.32788086 C18.19763051 47.67740255 19.8480448 46.02158919 21.49804688 44.36523438 C22.55436664 43.30957468 23.61099617 42.25422483 24.66796875 41.19921875 C25.15863327 40.70653 25.64929779 40.21384125 26.15483093 39.70622253 C28.35221684 37.52386469 30.41044286 35.72637143 33 34 C31.66604327 31.00397785 30.24215997 29.03398391 27.83203125 26.8203125 C27.19265625 26.22750488 26.55328125 25.63469727 25.89453125 25.02392578 C25.20746094 24.39728027 24.52039063 23.77063477 23.8125 23.125 C23.10867187 22.4738623 22.40484375 21.82272461 21.6796875 21.15185547 C19.45745589 19.09648929 17.22878481 17.04825566 15 15 C12.83539335 13.00146232 10.67320952 11.00040835 8.5144043 8.99560547 C7.18654739 7.76253801 5.85603655 6.53232145 4.52270508 5.30517578 C2.99632649 3.89014082 1.49520142 2.44793931 0 1 C0 0.67 0 0.34 0 0 Z " fill="#FF3333" transform="translate(220,228)"/>
</svg>
