<?xml version="1.0" encoding="UTF-8"?>
<svg version="1.1" xmlns="http://www.w3.org/2000/svg" width="500" height="500">
<path d="M0 0 C1.53289805 -0.04155641 3.06539856 -0.10282991 4.59667969 -0.18457031 C17.27610499 -0.84981493 17.27610499 -0.84981493 21.80200195 2.63818359 C23.84009029 5.20073512 25.5141939 7.81473489 27.18945312 10.62475586 C28.26028597 11.94182384 29.36136083 13.23517682 30.49804688 14.49584961 C31.01302734 15.08438721 31.52800781 15.6729248 32.05859375 16.27929688 C32.57615234 16.86767334 33.09371094 17.4560498 33.62695312 18.06225586 C38.24733915 23.35275884 42.77182193 28.69827041 47.18945312 34.15991211 C49.49644741 37.00310233 51.84547293 39.81197962 54.18945312 42.62475586 C54.51945312 28.76475586 54.84945312 14.90475586 55.18945312 0.62475586 C64.75945312 0.62475586 74.32945313 0.62475586 84.18945312 0.62475586 C84.18945312 22.73475586 84.18945312 44.84475586 84.18945312 67.62475586 C75.80539063 67.93413086 75.80539063 67.93413086 67.25195312 68.24975586 C65.50664307 68.3407959 63.76133301 68.43183594 61.96313477 68.52563477 C50.9574281 68.85998182 50.9574281 68.85998182 46.20385742 65.53881836 C43.92199423 63.01546209 42.03504897 60.47806631 40.18945312 57.62475586 C39.38894531 56.67084961 38.5884375 55.71694336 37.76367188 54.73413086 C37.14105469 53.95553711 36.5184375 53.17694336 35.87695312 52.37475586 C31.83606459 47.37513279 27.67076248 42.49650608 23.43823242 37.65893555 C22.959104 37.10625 22.47997559 36.55356445 21.98632812 35.98413086 C21.56706055 35.50427734 21.14779297 35.02442383 20.71582031 34.5300293 C18.41481956 31.65782682 16.328548 28.61948868 14.18945312 25.62475586 C13.85945313 39.48475586 13.52945313 53.34475586 13.18945312 67.62475586 C3.28945313 67.62475586 -6.61054688 67.62475586 -16.81054688 67.62475586 C-16.8335872 59.99328845 -16.85347557 52.36194331 -16.86547852 44.73046875 C-16.87048606 42.13801666 -16.87729401 39.54556736 -16.88598633 36.953125 C-16.89820938 33.21215116 -16.90381114 29.47121488 -16.90820312 25.73022461 C-16.91336441 24.58394089 -16.9185257 23.43765717 -16.92384338 22.25663757 C-16.92487905 7.16933589 -16.92487905 7.16933589 -15.81054688 1.62475586 C-11.30981646 -0.62560935 -4.98759063 0.10558835 0 0 Z " fill="#FC3131" transform="translate(35.810546875,227.375244140625)"/>
<path d="M0 0 C3.77069205 3.25117448 6.11066678 7.42582484 8 12 C8 13.32 8 14.64 8 16 C3.85577739 16.09953791 -0.28779575 16.17177901 -4.43286133 16.21972656 C-5.84021134 16.23973246 -7.24747938 16.26694662 -8.65454102 16.30175781 C-22.63194512 16.63868212 -22.63194512 16.63868212 -29 12 C-34.01154586 11.39515826 -36.97272616 11.92032 -41 15 C-41.33 15.66 -41.66 16.32 -42 17 C-41.31599121 17.04487549 -40.63198242 17.08975098 -39.92724609 17.13598633 C-2.86989467 19.63784047 -2.86989467 19.63784047 6.9375 28.8125 C9.33634227 33.7512929 9.45108931 38.3136993 8 43.5 C5.20536574 50.73610656 0.70026886 55.47929722 -6.25 58.875 C-22.06486362 65.213751 -42.85026079 65.5429394 -58.61328125 58.8984375 C-65.71469027 55.29543129 -69.93166736 50.42859482 -73 43 C-73 41.68 -73 40.36 -73 39 C-68.85577739 38.90046209 -64.71220425 38.82822099 -60.56713867 38.78027344 C-59.15978866 38.76026754 -57.75252062 38.73305338 -56.34545898 38.69824219 C-42.38004649 38.36160693 -42.38004649 38.36160693 -36 43 C-31.50551069 43.46494717 -27.98210225 43.22529244 -24 41 C-23.67 40.01 -23.34 39.02 -23 38 C-23.88671387 37.92483154 -24.77342773 37.84966309 -25.68701172 37.7722168 C-29.02395319 37.48423418 -32.35977631 37.18673192 -35.6953125 36.88305664 C-37.13020364 36.75432145 -38.5654266 36.62922444 -40.00097656 36.50805664 C-64.12344812 34.46420706 -64.12344812 34.46420706 -71.875 25.9375 C-74.00997107 20.3628533 -74.08936133 14.88020532 -71.96875 9.2734375 C-67.33882211 0.75951454 -60.4894099 -3.54434184 -51.43359375 -6.45703125 C-34.47580038 -10.24055176 -14.84583158 -9.47606271 0 0 Z " fill="#FA3332" transform="translate(487,234)"/>
<path d="M0 0 C9.57 0 19.14 0 29 0 C29.165 4.186875 29.33 8.37375 29.5 12.6875 C29.57831055 14.62435669 29.57831055 14.62435669 29.65820312 16.6003418 C29.9219672 23.51106516 30.0250245 30.39006965 29.90771484 37.30541992 C30.03201057 40.93465786 30.74606848 43.14502008 33 46 C37.49715002 49.13754653 41.67676209 49.77564145 47 49 C50.40203848 47.7804013 52.3622952 46.78825681 54.63598633 43.9777832 C56.54475026 39.81075373 56.47845139 36.07768524 56.51171875 31.54296875 C56.52966995 30.64000565 56.54762115 29.73704254 56.56611633 28.80671692 C56.62013021 25.93369156 56.65408637 23.06083149 56.6875 20.1875 C56.72068096 18.23500309 56.75517134 16.28252796 56.79101562 14.33007812 C56.87830792 9.5533628 56.93845206 4.77739353 57 0 C66.9 0 76.8 0 87 0 C87.0462969 4.90747117 87.08600332 9.81416287 87.10986328 14.72167969 C87.11982596 16.38576853 87.13340102 18.04984031 87.15087891 19.71386719 C87.4458852 48.55507102 87.4458852 48.55507102 79.16015625 58.125 C68.66196804 68.45233162 54.83195811 69.24203123 40.86474609 69.17626953 C28.78473328 69.01572959 17.77379598 67.24401284 8.0546875 59.4375 C1.22106989 52.29482431 -1.1409316 41.52085137 -1.02172852 31.90063477 C-0.98024805 30.41404166 -0.93238466 28.92761611 -0.87890625 27.44140625 C-0.85529526 26.65225327 -0.83168427 25.86310028 -0.80735779 25.05003357 C-0.73138964 22.55397479 -0.6470823 20.05828021 -0.5625 17.5625 C-0.50921218 15.86004327 -0.45647237 14.1575693 -0.40429688 12.45507812 C-0.27688565 8.3030902 -0.13817739 4.15169912 0 0 Z " fill="#FC3231" transform="translate(320,228)"/>
<path d="M0 0 C25.74 0 51.48 0 78 0 C78 5.61 78 11.22 78 17 C61.83 17 45.66 17 29 17 C29 20.3 29 23.6 29 27 C42.53 27 56.06 27 70 27 C70 31.29 70 35.58 70 40 C56.47 40 42.94 40 29 40 C29 43.3 29 46.6 29 50 C46.16 50 63.32 50 81 50 C81 55.61 81 61.22 81 67 C54.27 67 27.54 67 0 67 C0 44.89 0 22.78 0 0 Z " fill="#FB3333" transform="translate(134,228)"/>
<path d="M0 0 C28.03930414 -2.08291974 28.03930414 -2.08291974 34.48828125 2.49609375 C37.5036394 5.299724 39.73276866 8.57118904 42 12 C43.60061885 13.75370673 45.27455215 15.36552479 47 17 C50.16945246 15.65074166 51.68735522 14.37791897 53.58203125 11.5234375 C58.05868608 5.57336287 62.12754403 0.72741428 69.73535156 -0.70166016 C78.78525641 -1.51416497 87.97440063 -0.82388909 97 0 C94.55831566 3.10034034 92.21830886 5.84418201 89.1875 8.375 C86.51228018 10.6595685 83.96207886 12.98721471 81.5 15.5 C78.45008819 18.60549107 75.2297813 21.44907245 71.93359375 24.2890625 C69.16155106 26.74190028 66.58428299 29.35110994 64 32 C65.4199255 35.23048748 67.13619387 37.38242488 69.6328125 39.86328125 C70.71949219 40.94706055 70.71949219 40.94706055 71.828125 42.05273438 C72.96507812 43.17131836 72.96507812 43.17131836 74.125 44.3125 C74.85976563 45.04662109 75.59453125 45.78074219 76.3515625 46.53710938 C79.86381082 50.02153179 83.41370821 53.39605137 87.1796875 56.60546875 C90.87454066 59.77783142 93.92226794 63.22977823 97 67 C69.79522866 69.9544248 69.79522866 69.9544248 61.29296875 63.28515625 C57.58477732 59.75916688 54.32177712 55.92313544 51.31152344 51.78759766 C49.9824325 49.88120927 49.9824325 49.88120927 48 48 C47.28714844 48.78503906 46.57429688 49.57007813 45.83984375 50.37890625 C44.87248394 51.44018449 43.90503097 52.5013778 42.9375 53.5625 C42.47150391 54.07619141 42.00550781 54.58988281 41.52539062 55.11914062 C40.54638745 56.1913822 39.55339072 57.25097273 38.54858398 58.29907227 C36.95402628 59.98294902 36.95402628 59.98294902 35.60961914 61.94897461 C32.89231174 65.40151738 31.04742195 66.82812589 26.63305664 67.55249023 C22.58514562 67.68929735 18.60568106 67.61255195 14.5625 67.4375 C13.14916584 67.40234082 11.73574747 67.37040987 10.32226562 67.34179688 C6.87974425 67.26513033 3.44041486 67.14460866 0 67 C4.83001933 61.18521944 10.01906267 55.83067347 15.375 50.5 C16.18710938 49.68402344 16.99921875 48.86804688 17.8359375 48.02734375 C22.72573155 43.14538591 27.73014597 38.46962369 33 34 C31.62480311 30.87676556 30.07685564 28.87750206 27.578125 26.56640625 C26.888396 25.92324463 26.19866699 25.28008301 25.48803711 24.61743164 C24.74948486 23.9393042 24.01093262 23.26117676 23.25 22.5625 C22.49662354 21.86181396 21.74324707 21.16112793 20.96704102 20.43920898 C18.65032076 18.28662932 16.32639265 16.14211904 14 14 C11.93300921 12.09529937 9.86627103 10.19034495 7.80175781 8.28295898 C6.57606032 7.15180521 5.34761664 6.02361862 4.11621094 4.89868164 C2.72564807 3.61892797 1.35980201 2.31239211 0 1 C0 0.67 0 0.34 0 0 Z " fill="#FA3332" transform="translate(219,228)"/>
<path d="M0 0 C9.9 0 19.8 0 30 0 C30.023058 4.98052778 30.04294074 9.96086746 30.05493164 14.94140625 C30.05993487 16.63281891 30.06673952 18.32422731 30.07543945 20.015625 C30.08768185 22.45834411 30.09326855 24.90100562 30.09765625 27.34375 C30.10281754 28.08991577 30.10797882 28.83608154 30.11329651 29.6048584 C30.11380862 34.48755973 29.69035046 39.16515799 29 44 C28.67 44 28.34 44 28 44 C28 29.81 28 15.62 28 1 C19.42 1 10.84 1 2 1 C2.119753 5.94809222 2.24233781 10.89594033 2.37231445 15.84375 C2.41567817 17.52762642 2.4573522 19.21154723 2.49731445 20.89550781 C2.55498234 23.31328724 2.6186865 25.73084295 2.68359375 28.1484375 C2.70030624 28.9036972 2.71701874 29.65895691 2.73423767 30.43710327 C2.77555107 34.34739799 2.77555107 34.34739799 4 38 C3.34 38 2.68 38 2 38 C1.67 39.98 1.34 41.96 1 44 C0.34 44 -0.32 44 -1 44 C-1.309375 44.86625 -1.309375 44.86625 -1.625 45.75 C-3.63404966 49.03753581 -5.53930597 50.30111384 -9 52 C-12.08410431 52.03521816 -14.98310117 51.6167882 -18 51 C-18 50.67 -18 50.34 -18 50 C-17.26394531 49.91363281 -16.52789062 49.82726562 -15.76953125 49.73828125 C-9.4863457 48.83356893 -5.86948017 48.1593069 -2 43 C-0.28311866 39.56623732 -0.75490998 35.61885635 -0.68359375 31.8359375 C-0.66281265 30.92872955 -0.64203156 30.02152161 -0.62062073 29.08682251 C-0.55512865 26.1829602 -0.49624186 23.27900595 -0.4375 20.375 C-0.39431445 18.40884458 -0.35070015 16.44269853 -0.30664062 14.4765625 C-0.19863907 9.65113461 -0.09956323 4.82563899 0 0 Z " fill="#D73B3B" transform="translate(377,228)"/>
<path d="M0 0 C9.57 0 19.14 0 29 0 C29 22.11 29 44.22 29 67 C27.35 67 25.7 67 24 67 C25.98 66.505 25.98 66.505 28 66 C28 44.55 28 23.1 28 1 C20.41 1.33 12.82 1.66 5 2 C4.67 4.64 4.34 7.28 4 10 C3.34 10 2.68 10 2 10 C2.01160156 11.02996094 2.02320312 12.05992187 2.03515625 13.12109375 C2.11343317 23.45486972 1.72243187 33.6924453 1 44 C0.34 43.67 -0.32 43.34 -1 43 C-0.67 28.81 -0.34 14.62 0 0 Z " fill="#E03E3E" transform="translate(91,228)"/>
<path d="M0 0 C0.66 0.33 1.32 0.66 2 1 C2.33 1.99 2.66 2.98 3 4 C2.67 4.33 2.34 4.66 2 5 C1.87649342 6.90160112 1.82206557 8.8077239 1.79467773 10.71313477 C1.77473251 11.9343251 1.75478729 13.15551544 1.73423767 14.41371155 C1.71725209 15.75627513 1.70037333 17.09884007 1.68359375 18.44140625 C1.66303053 19.80761861 1.64203423 21.17382451 1.62062073 22.5400238 C1.56533465 26.14194524 1.51595437 29.74392471 1.46777344 33.34594727 C1.41760597 37.01909572 1.36189515 40.69215955 1.30664062 44.36523438 C1.19897918 51.57675132 1.09755213 58.78833847 1 66 C0.34 66 -0.32 66 -1 66 C-1.02549801 58.36857828 -1.04292872 50.73716767 -1.05493164 43.10571289 C-1.05993918 40.5132608 -1.06674714 37.9208115 -1.07543945 35.32836914 C-1.08766251 31.5873953 -1.09326426 27.84645902 -1.09765625 24.10546875 C-1.10281754 22.95918503 -1.10797882 21.81290131 -1.11329651 20.63188171 C-1.11377247 13.69824238 -0.76278214 6.89217528 0 0 Z " fill="#CE3031" transform="translate(20,229)"/>
<path d="M0 0 C2.98704569 0.49784095 4.39324263 1.26216175 7 3 C6.67 4.32 6.34 5.64 6 7 C4.68 5.35 3.36 3.7 2 2 C1.67 15.86 1.34 29.72 1 44 C-1.31 44 -3.62 44 -6 44 C-6 43.34 -6 42.68 -6 42 C-4.35 42 -2.7 42 -1 42 C-1.00523682 40.7632251 -1.01047363 39.5264502 -1.01586914 38.25219727 C-1.03391561 33.68075275 -1.04543071 29.10931141 -1.05493164 24.5378418 C-1.05997267 22.55606559 -1.06680538 20.57429311 -1.07543945 18.5925293 C-1.08751515 15.75047891 -1.09323045 12.90847753 -1.09765625 10.06640625 C-1.10281754 9.17474258 -1.10797882 8.28307892 -1.11329651 7.36439514 C-1.11349177 5.24259399 -1.0621003 3.1208922 -1 1 C-0.67 0.67 -0.34 0.34 0 0 Z " fill="#D53F3A" transform="translate(48,251)"/>
<path d="M0 0 C1.32 0.66 2.64 1.32 4 2 C-11.00019981 9.80313424 -30.75478158 10.18168649 -47 6 C-49.45663334 5.13912849 -51.66658908 4.16670546 -54 3 C-50.25 1.875 -50.25 1.875 -48 3 C-45.69116277 3.03015273 -43.40065744 2.93346824 -41.09375 2.83984375 C-39 3 -39 3 -37 5 C-34.18597317 5.37239227 -34.18597317 5.37239227 -30.8984375 5.4140625 C-29.68671875 5.45273437 -28.475 5.49140625 -27.2265625 5.53125 C-25.95554687 5.5621875 -24.68453125 5.593125 -23.375 5.625 C-22.09625 5.66367187 -20.8175 5.70234375 -19.5 5.7421875 C-16.33347983 5.83671049 -13.1669696 5.92226357 -10 6 C-10 5.34 -10 4.68 -10 4 C-7.69 4 -5.38 4 -3 4 C-3 3.34 -3 2.68 -3 2 C-2.01 2 -1.02 2 0 2 C0 1.34 0 0.68 0 0 Z " fill="#DE413E" transform="translate(389,289)"/>
<path d="M0 0 C10.23 0 20.46 0 31 0 C27.27419609 4.65725489 24.76861112 6.7903579 20 10 C19.67 8.02 19.34 6.04 19 4 C19.66 4 20.32 4 21 4 C21 3.01 21 2.02 21 1 C14.07 1 7.14 1 0 1 C0 0.67 0 0.34 0 0 Z " fill="#EA3D3B" transform="translate(285,228)"/>
<path d="M0 0 C0 3 0 3 -1.3125 4.60546875 C-1.869375 5.12753906 -2.42625 5.64960938 -3 6.1875 C-3.556875 6.71730469 -4.11375 7.24710937 -4.6875 7.79296875 C-5.120625 8.19128906 -5.55375 8.58960938 -6 9 C-5.01 8.67 -4.02 8.34 -3 8 C-2.67 9.32 -2.34 10.64 -2 12 C-2.99 12.66 -3.98 13.32 -5 14 C-5.99 13.67 -6.98 13.34 -8 13 C-10.01920337 14.30406884 -12.01924973 15.63823419 -14 17 C-14.99 17 -15.98 17 -17 17 C-11.39 11.39 -5.78 5.78 0 0 Z " fill="#E34240" transform="translate(242,271)"/>
<path d="M0 0 C4.16239765 -0.17391101 8.32283793 -0.30045376 12.48779297 -0.38452148 C13.90223038 -0.4195835 15.31641658 -0.46725128 16.72998047 -0.52807617 C28.52049086 -1.02246332 28.52049086 -1.02246332 32.29980469 1.58935547 C33.792058 3.33031767 34.96144146 4.96065465 36 7 C34.02 6.67 32.04 6.34 30 6 C29.67 4.68 29.34 3.36 29 2 C25.04172765 1.94214353 21.0835633 1.90645283 17.125 1.875 C15.99707031 1.85824219 14.86914062 1.84148437 13.70703125 1.82421875 C12.63066406 1.81777344 11.55429688 1.81132812 10.4453125 1.8046875 C9.45031738 1.79421387 8.45532227 1.78374023 7.43017578 1.77294922 C4.81828583 1.75620599 4.81828583 1.75620599 3 4 C2.01 2.68 1.02 1.36 0 0 Z " fill="#E53F42" transform="translate(219,228)"/>
<path d="M0 0 C0.33 0.66 0.66 1.32 1 2 C0.34 2 -0.32 2 -1 2 C-1.66 3.65 -2.32 5.3 -3 7 C-4.32 7 -5.64 7 -7 7 C-7.33 8.98 -7.66 10.96 -8 13 C-8.66 13 -9.32 13 -10 13 C-10 13.66 -10 14.32 -10 15 C-10.66 15 -11.32 15 -12 15 C-10.386347 8.83877944 -7.51370083 4.67580055 -2.1875 1.125 C-1.465625 0.75375 -0.74375 0.3825 0 0 Z " fill="#DE403E" transform="translate(427,231)"/>
<path d="M0 0 C1.12894876 0.93274109 2.25300876 1.87140122 3.375 2.8125 C4.00148438 3.33457031 4.62796875 3.85664063 5.2734375 4.39453125 C7 6 7 6 9 9 C7.125 9.625 7.125 9.625 5 10 C4.34 9.34 3.68 8.68 3 8 C3.66 8 4.32 8 5 8 C5 7.34 5 6.68 5 6 C3.68 6.33 2.36 6.66 1 7 C-0.0625 4.625 -0.0625 4.625 -1 2 C-0.67 1.34 -0.34 0.68 0 0 Z " fill="#EF3C3B" transform="translate(290,270)"/>
<path d="M0 0 C5.64154669 1.3119876 7.89079259 3.28907967 11 8 C10.8125 10.375 10.8125 10.375 10 12 C8.07240008 10.32382616 7.09465377 9.40227852 6.5 6.875 C6.335 6.25625 6.17 5.6375 6 5 C5.01 4.67 4.02 4.34 3 4 C3 3.34 3 2.68 3 2 C2.01 2 1.02 2 0 2 C0 1.34 0 0.68 0 0 Z " fill="#DF3F40" transform="translate(484,257)"/>
<path d="M0 0 C0.99 0.33 1.98 0.66 3 1 C2.01 2.32 1.02 3.64 0 5 C5.28 5.33 10.56 5.66 16 6 C16 6.33 16 6.66 16 7 C10.39 7 4.78 7 -1 7 C-1.33 5.35 -1.66 3.7 -2 2 C-1.34 1.34 -0.68 0.68 0 0 Z " fill="#E44545" transform="translate(445,246)"/>
<path d="M0 0 C4.455 0.99 4.455 0.99 9 2 C9.33 1.34 9.66 0.68 10 0 C10.061875 0.61875 10.12375 1.2375 10.1875 1.875 C10.828919 4.27761141 10.828919 4.27761141 13.5625 5.25 C14.366875 5.4975 15.17125 5.745 16 6 C13.04893565 7.25348607 12.02593537 7.01044806 8.984375 5.78515625 C7.91703125 5.21667969 6.8496875 4.64820313 5.75 4.0625 C4.67234375 3.49660156 3.5946875 2.93070312 2.484375 2.34765625 C1.66453125 1.90292969 0.8446875 1.45820313 0 1 C0 0.67 0 0.34 0 0 Z " fill="#DF4140" transform="translate(422,288)"/>
<path d="M0 0 C3.10009769 1.38238352 5.28263873 2.98578859 7.6875 5.375 C8.28949219 5.96023438 8.89148438 6.54546875 9.51171875 7.1484375 C11.10135013 9.12608914 11.5905426 10.5214179 12 13 C10.02 13.33 8.04 13.66 6 14 C6.66 12.35 7.32 10.7 8 9 C7.4225 8.43410156 6.845 7.86820312 6.25 7.28515625 C5.13625 6.18494141 5.13625 6.18494141 4 5.0625 C3.2575 4.33160156 2.515 3.60070312 1.75 2.84765625 C0 1 0 1 0 0 Z " fill="#DD3E42" transform="translate(244,251)"/>
<path d="M0 0 C1.32 0 2.64 0 4 0 C4 0.99 4 1.98 4 3 C5.32 3.33 6.64 3.66 8 4 C8 5.32 8 6.64 8 8 C8.66 8 9.32 8 10 8 C9.67 8.99 9.34 9.98 9 11 C7.49703315 9.35687553 5.99769719 7.71042916 4.5 6.0625 C3.6646875 5.14597656 2.829375 4.22945313 1.96875 3.28515625 C0 1 0 1 0 0 Z " fill="#E63C3C" transform="translate(61,266)"/>
<path d="M0 0 C3.16115776 1.36983503 3.9927092 1.9890638 6 5 C2.7 5 -0.6 5 -4 5 C-4 4.34 -4 3.68 -4 3 C-2 1.375 -2 1.375 0 0 Z " fill="#E43D3C" transform="translate(310,290)"/>
<path d="M0 0 C0.66 0.33 1.32 0.66 2 1 C2.33 2.32 2.66 3.64 3 5 C-1.29 5 -5.58 5 -10 5 C-10.33 4.34 -10.66 3.68 -11 3 C-10.28972656 2.86722656 -9.57945312 2.73445312 -8.84765625 2.59765625 C-7.92855469 2.42105469 -7.00945312 2.24445313 -6.0625 2.0625 C-4.68771484 1.80146484 -4.68771484 1.80146484 -3.28515625 1.53515625 C-1.04710156 1.22285012 -1.04710156 1.22285012 0 0 Z " fill="#ED4042" transform="translate(458,241)"/>
<path d="M0 0 C0.33 0.99 0.66 1.98 1 3 C-1.41978442 6.72274527 -3.85929707 9.34371883 -8 11 C-11.05548484 10.94341695 -13.99568873 10.54326326 -17 10 C-17 9.67 -17 9.34 -17 9 C-16.26394531 8.91363281 -15.52789062 8.82726562 -14.76953125 8.73828125 C-8.4863457 7.83356893 -4.86948017 7.1593069 -1 2 C-0.67 1.34 -0.34 0.68 0 0 Z " fill="#E4494A" transform="translate(376,269)"/>
<path d="M0 0 C0.66 0.33 1.32 0.66 2 1 C1.34 2.32 0.68 3.64 0 5 C1.32 6.65 2.64 8.3 4 10 C2.35 10 0.7 10 -1 10 C-2.49821059 6.62902617 -3 4.79557881 -3 1 C-2.01 0.67 -1.02 0.34 0 0 Z " fill="#E74344" transform="translate(283,257)"/>
<path d="M0 0 C2.0836309 0.14151828 4.16689938 0.28837936 6.25 0.4375 C7.99023438 0.55931641 7.99023438 0.55931641 9.765625 0.68359375 C12.30977376 0.93247787 14.55953248 1.28114942 17 2 C17 2.66 17 3.32 17 4 C15.33388095 4.042721 13.66617115 4.04063832 12 4 C11.67 3.67 11.34 3.34 11 3 C8.41977858 2.71778828 5.83969815 2.55179803 3.25 2.37890625 C2.5075 2.25386719 1.765 2.12882813 1 2 C0.67 1.34 0.34 0.68 0 0 Z " fill="#DB4545" transform="translate(463,253)"/>
<path d="M0 0 C0.33 0 0.66 0 1 0 C1 3.3 1 6.6 1 10 C1.66 10 2.32 10 3 10 C3.33 10.66 3.66 11.32 4 12 C4.66 11.67 5.32 11.34 6 11 C5.67 12.98 5.34 14.96 5 17 C0.04523522 12.20506634 0.04523522 12.20506634 -0.09765625 8.3984375 C-0.08605469 7.40070313 -0.07445312 6.40296875 -0.0625 5.375 C-0.05347656 4.37210938 -0.04445313 3.36921875 -0.03515625 2.3359375 C-0.02355469 1.56507813 -0.01195312 0.79421875 0 0 Z " fill="#DD3F3E" transform="translate(414,246)"/>
<path d="M0 0 C5.93002267 -0.37851209 10.47239641 0.89424625 16 3 C16 3.33 16 3.66 16 4 C14.00045254 4.04254356 11.99958364 4.04080783 10 4 C9.67 3.67 9.34 3.34 9 3 C7.48530552 2.76807135 5.96245438 2.58784762 4.4375 2.4375 C3.61121094 2.35371094 2.78492188 2.26992187 1.93359375 2.18359375 C1.29550781 2.12300781 0.65742188 2.06242188 0 2 C0 1.34 0 0.68 0 0 Z " fill="#DE403E" transform="translate(464,227)"/>
<path d="M0 0 C0 3 0 3 -2.25 5.4375 C-3.1575 6.283125 -4.065 7.12875 -5 8 C-6.1446875 9.1446875 -6.1446875 9.1446875 -7.3125 10.3125 C-7.869375 10.869375 -8.42625 11.42625 -9 12 C-9.66 11.67 -10.32 11.34 -11 11 C-7.37 7.37 -3.74 3.74 0 0 Z " fill="#DB4C4B" transform="translate(284,229)"/>
<path d="M0 0 C1.65 0 3.3 0 5 0 C4.67 1.98 4.34 3.96 4 6 C2.68 5.67 1.36 5.34 0 5 C0 3.35 0 1.7 0 0 Z " fill="#ED3638" transform="translate(419,259)"/>
<path d="M0 0 C1.32 0.66 2.64 1.32 4 2 C0.62902617 3.49821059 -1.20442119 4 -5 4 C-5 3.34 -5 2.68 -5 2 C-3.35 2 -1.7 2 0 2 C0 1.34 0 0.68 0 0 Z " fill="#E24043" transform="translate(476,291)"/>
<path d="M0 0 C0.66 0.33 1.32 0.66 2 1 C0.02 2.98 -1.96 4.96 -4 7 C-4.66 6.67 -5.32 6.34 -6 6 C-4.98545548 3.4636387 -4.3146444 2.20648539 -2 0.6875 C-1.34 0.460625 -0.68 0.23375 0 0 Z " fill="#DB3F43" transform="translate(399,283)"/>
</svg>
