<?xml version="1.0" encoding="UTF-8"?>
<svg version="1.1" xmlns="http://www.w3.org/2000/svg" width="500" height="500">
<path d="M0 0 C2.84857243 3.19450912 5.19097743 6.67141467 7.54248047 10.24267578 C10.9580337 15.36822065 14.92417903 19.73202564 19.1875 24.1640625 C21.05859375 26.30859375 21.05859375 26.30859375 21.05859375 28.30859375 C21.71859375 28.30859375 22.37859375 28.30859375 23.05859375 28.30859375 C23.05859375 28.96859375 23.05859375 29.62859375 23.05859375 30.30859375 C24.04859375 30.30859375 25.03859375 30.30859375 26.05859375 30.30859375 C27.49766421 27.43045283 27.20490363 24.90442179 27.234375 21.69140625 C27.25757442 20.34894267 27.28169181 19.0064947 27.30664062 17.6640625 C27.34174354 15.54855928 27.37109352 13.43363001 27.38452148 11.31787109 C27.400023 9.27501008 27.44023931 7.23382333 27.484375 5.19140625 C27.49895752 3.96824707 27.51354004 2.74508789 27.52856445 1.48486328 C28.17059528 -2.36259 29.02953876 -3.30831805 32.05859375 -5.69140625 C34.80509472 -6.23352337 34.80509472 -6.23352337 37.98930359 -6.29240417 C39.17975438 -6.32347669 40.37020517 -6.3545492 41.59673023 -6.3865633 C42.8818283 -6.39974692 44.16692636 -6.41293055 45.4909668 -6.42651367 C46.84434643 -6.45366384 48.19769627 -6.48233807 49.55101299 -6.51246166 C53.04490761 -6.58455579 56.53861249 -6.6316762 60.0330348 -6.66913939 C61.95165392 -6.69023067 63.87021233 -6.71664891 65.78876114 -6.7433815 C74.23934329 -6.85993235 82.68932361 -6.90665959 91.140625 -6.9296875 C92.43681952 -6.93376303 93.73301403 -6.93783855 95.06848717 -6.94203758 C101.19638218 -6.96084831 107.32426654 -6.97515961 113.4521845 -6.98364955 C120.44864547 -6.99351866 127.44479834 -7.02018569 134.44115049 -7.06015044 C140.58039162 -7.09399027 146.71950224 -7.105794 152.85883141 -7.10985374 C155.44433424 -7.1147072 158.02983399 -7.12628546 160.61527443 -7.14489174 C164.21227912 -7.16924189 167.80845571 -7.16832917 171.40551758 -7.16137695 C172.45746811 -7.17418701 173.50941864 -7.18699707 174.59324646 -7.20019531 C182.50667303 -7.1445295 188.6245085 -5.51400908 194.80078125 -0.4375 C195.50460937 0.32433594 196.2084375 1.08617187 196.93359375 1.87109375 C198.01253906 3.01771484 198.01253906 3.01771484 199.11328125 4.1875 C200.29701025 5.47819246 201.47655195 6.77276355 202.6484375 8.07421875 C204.0848555 9.58259324 204.0848555 9.58259324 206.74609375 9.49609375 C207.50921875 9.43421875 208.27234375 9.37234375 209.05859375 9.30859375 C209.46271484 8.44234375 209.46271484 8.44234375 209.875 7.55859375 C213.44416095 0.77365413 218.0906658 -3.46932996 225.3364563 -5.91268921 C234.07192405 -7.74025675 243.14066352 -7.19224685 252.0234375 -7.1171875 C254.26583057 -7.1122551 256.50822779 -7.10896176 258.75062561 -7.10722351 C263.4366688 -7.09960925 268.12240375 -7.07913086 272.80834961 -7.0480957 C278.78742951 -7.00854628 284.76630952 -6.99048492 290.74550533 -6.98078632 C296.48400923 -6.97076669 302.22246577 -6.95093734 307.9609375 -6.9296875 C309.04173018 -6.92629175 310.12252285 -6.922896 311.23606682 -6.91939735 C341.52604383 -6.80468623 341.52604383 -6.80468623 344.82884216 -4.40545654 C346.33365274 -2.30802399 346.44855064 -1.1602474 346.47851562 1.40600586 C346.49442749 2.2279393 346.51033936 3.04987274 346.5267334 3.89671326 C346.52703552 5.22787926 346.52703552 5.22787926 346.52734375 6.5859375 C346.53495728 7.50766251 346.5425708 8.42938751 346.55041504 9.37904358 C346.56122937 11.33510636 346.56406375 13.29122694 346.55957031 15.24731445 C346.55860736 18.20430744 346.60001514 21.15862254 346.64453125 24.11523438 C346.72202516 36.46952854 345.52867427 44.99391654 338.99609375 55.68359375 C325.63407586 67.62412038 307.70694023 67.02821335 290.83154297 66.49609375 C286.93691107 66.23274833 283.23736984 65.46109243 279.43359375 64.62109375 C268.89295612 62.35667189 258.51290286 64.19053477 247.94140625 65.546875 C227.89106213 68.01835351 227.89106213 68.01835351 221.05859375 63.30859375 C216.92665139 59.27576845 213.12154996 54.96485399 209.578125 50.40234375 C208.0539278 49.08851313 208.0539278 49.08851313 205.71875 49.25 C202.039985 50.71394319 199.97687445 53.28360806 197.49609375 56.24609375 C190.94301899 63.95294234 190.94301899 63.95294234 184.70043945 64.72265625 C183.27491155 64.80527999 181.84856658 64.87436854 180.421875 64.93359375 C179.20169426 64.99051392 179.20169426 64.99051392 177.9568634 65.04858398 C165.27433948 65.55348922 152.5676939 65.38048529 139.87765503 65.32717896 C132.04737134 65.2944822 124.21706515 65.27980495 116.38671875 65.2734375 C115.23768727 65.27243199 115.23768727 65.27243199 114.06544304 65.27140617 C101.86767986 65.2652572 89.68685401 65.45039626 77.49609375 65.87109375 C66.56172336 66.23982562 55.68085702 66.34383263 44.74609375 65.99609375 C43.58198975 65.96136963 42.41788574 65.92664551 41.21850586 65.89086914 C25.97026678 65.27102202 25.97026678 65.27102202 20.74609375 61.75 C19.91078125 60.81994141 19.91078125 60.81994141 19.05859375 59.87109375 C18.41664062 59.16597656 17.7746875 58.46085937 17.11328125 57.734375 C16.09621094 56.53361328 16.09621094 56.53361328 15.05859375 55.30859375 C14.25679687 54.37402344 13.455 53.43945312 12.62890625 52.4765625 C6.41341408 45.05967328 6.41341408 45.05967328 4.98828125 42.04296875 C4.12073716 39.94778926 4.12073716 39.94778926 1.05859375 39.30859375 C-0.54593929 37.315083 -2.03908353 35.33699078 -3.50390625 33.24609375 C-4.93453844 31.20992742 -6.39055546 29.25966409 -7.94140625 27.30859375 C-8.60140625 27.30859375 -9.26140625 27.30859375 -9.94140625 27.30859375 C-11.43320689 30.29219502 -11.15960001 33.37660032 -11.22265625 36.65234375 C-11.24106567 37.37723999 -11.2594751 38.10213623 -11.27844238 38.84899902 C-11.33724531 41.1687808 -11.39004364 43.488636 -11.44140625 45.80859375 C-11.50898124 48.86083601 -11.58264772 51.91283941 -11.66015625 54.96484375 C-11.67373169 55.67008179 -11.68730713 56.37531982 -11.70129395 57.10192871 C-11.82860444 62.08299013 -11.82860444 62.08299013 -12.94140625 64.30859375 C-19.09020397 65.53835329 -25.14491557 65.32330542 -31.37890625 65.05859375 C-32.18448975 65.03240967 -32.99007324 65.00622559 -33.82006836 64.97924805 C-36.125 64.85546875 -36.125 64.85546875 -39.94140625 64.30859375 C-42.28831014 60.78823791 -42.20358418 59.31012289 -42.23193359 55.140625 C-42.2446933 53.86920654 -42.257453 52.59778809 -42.27059937 51.2878418 C-42.27365635 49.89892733 -42.27588447 48.51001082 -42.27734375 47.12109375 C-42.28377012 45.69767115 -42.29049836 44.27424989 -42.29751587 42.85083008 C-42.30948888 39.86829565 -42.31319656 36.88587707 -42.31201172 33.90332031 C-42.31180823 30.07965561 -42.33913942 26.25673172 -42.37355614 22.4332428 C-42.3957789 19.49414652 -42.39985075 16.55523005 -42.39879227 13.61605835 C-42.4011541 12.20622193 -42.41001045 10.79638098 -42.425457 9.3866272 C-42.4450246 7.41670272 -42.43678026 5.44656109 -42.42724609 3.4765625 C-42.43009613 2.35531982 -42.43294617 1.23407715 -42.43588257 0.07885742 C-41.94140625 -2.69140625 -41.94140625 -2.69140625 -40.1366272 -4.54492188 C-36.92770342 -6.22082652 -33.73672665 -6.26358449 -30.19140625 -6.37890625 C-29.51335938 -6.41306641 -28.8353125 -6.44722656 -28.13671875 -6.48242188 C-7.91807987 -7.42416456 -7.91807987 -7.42416456 0 0 Z " fill="#FFA1A1" transform="translate(60.94140625,231.69140625)"/>
<path d="M0 0 C2.84857243 3.19450912 5.19097743 6.67141467 7.54248047 10.24267578 C10.9580337 15.36822065 14.92417903 19.73202564 19.1875 24.1640625 C21.05859375 26.30859375 21.05859375 26.30859375 21.05859375 28.30859375 C21.71859375 28.30859375 22.37859375 28.30859375 23.05859375 28.30859375 C23.05859375 28.96859375 23.05859375 29.62859375 23.05859375 30.30859375 C24.04859375 30.30859375 25.03859375 30.30859375 26.05859375 30.30859375 C27.50123022 27.4233208 27.26076736 24.8413536 27.33984375 21.62109375 C27.35825317 20.96278564 27.3766626 20.30447754 27.39562988 19.6262207 C27.45440815 17.52043622 27.50721674 15.41457105 27.55859375 13.30859375 C27.6261947 10.53758641 27.6998605 7.7668404 27.77734375 4.99609375 C27.80763672 3.76246094 27.83792969 2.52882812 27.86914062 1.2578125 C28.05859375 -1.69140625 28.05859375 -1.69140625 29.05859375 -3.69140625 C38.62859375 -3.69140625 48.19859375 -3.69140625 58.05859375 -3.69140625 C58.05859375 18.41859375 58.05859375 40.52859375 58.05859375 63.30859375 C52.44859375 63.47359375 46.83859375 63.63859375 41.05859375 63.80859375 C39.30417969 63.88142578 37.54976563 63.95425781 35.7421875 64.02929688 C24.73706161 64.29789928 24.73706161 64.29789928 20.31982422 61.69433594 C18.28385611 59.68176976 16.67431247 57.66661114 15.05859375 55.30859375 C14.17528705 54.2843273 13.2831704 53.26753128 12.37890625 52.26171875 C11.65445313 51.3696875 10.93 50.47765625 10.18359375 49.55859375 C9.44367188 48.65625 8.70375 47.75390625 7.94140625 46.82421875 C6.05859375 44.30859375 6.05859375 44.30859375 4.98828125 42.04296875 C4.12073716 39.94778926 4.12073716 39.94778926 1.05859375 39.30859375 C-0.54593929 37.315083 -2.03908353 35.33699078 -3.50390625 33.24609375 C-4.93453844 31.20992742 -6.39055546 29.25966409 -7.94140625 27.30859375 C-8.60140625 27.30859375 -9.26140625 27.30859375 -9.94140625 27.30859375 C-11.43320689 30.29219502 -11.15960001 33.37660032 -11.22265625 36.65234375 C-11.24106567 37.37723999 -11.2594751 38.10213623 -11.27844238 38.84899902 C-11.33724531 41.1687808 -11.39004364 43.488636 -11.44140625 45.80859375 C-11.50898124 48.86083601 -11.58264772 51.91283941 -11.66015625 54.96484375 C-11.67373169 55.67008179 -11.68730713 56.37531982 -11.70129395 57.10192871 C-11.82860444 62.08299013 -11.82860444 62.08299013 -12.94140625 64.30859375 C-19.09020397 65.53835329 -25.14491557 65.32330542 -31.37890625 65.05859375 C-32.18448975 65.03240967 -32.99007324 65.00622559 -33.82006836 64.97924805 C-36.125 64.85546875 -36.125 64.85546875 -39.94140625 64.30859375 C-42.28831014 60.78823791 -42.20358418 59.31012289 -42.23193359 55.140625 C-42.2446933 53.86920654 -42.257453 52.59778809 -42.27059937 51.2878418 C-42.27365635 49.89892733 -42.27588447 48.51001082 -42.27734375 47.12109375 C-42.28377012 45.69767115 -42.29049836 44.27424989 -42.29751587 42.85083008 C-42.30948888 39.86829565 -42.31319656 36.88587707 -42.31201172 33.90332031 C-42.31180823 30.07965561 -42.33913942 26.25673172 -42.37355614 22.4332428 C-42.3957789 19.49414652 -42.39985075 16.55523005 -42.39879227 13.61605835 C-42.4011541 12.20622193 -42.41001045 10.79638098 -42.425457 9.3866272 C-42.4450246 7.41670272 -42.43678026 5.44656109 -42.42724609 3.4765625 C-42.43009613 2.35531982 -42.43294617 1.23407715 -42.43588257 0.07885742 C-41.94140625 -2.69140625 -41.94140625 -2.69140625 -40.1366272 -4.54492188 C-36.92770342 -6.22082652 -33.73672665 -6.26358449 -30.19140625 -6.37890625 C-29.51335938 -6.41306641 -28.8353125 -6.44722656 -28.13671875 -6.48242188 C-7.91807987 -7.42416456 -7.91807987 -7.42416456 0 0 Z " fill="#FF3A3A" transform="translate(60.94140625,231.69140625)"/>
<path d="M0 0 C2.09196645 1.93814539 3.4306572 3.58993784 5 6 C5 6.66 5 7.32 5 8 C5.9590625 8.309375 5.9590625 8.309375 6.9375 8.625 C9 10 9 10 9.75 13.125 C9.8325 14.07375 9.915 15.0225 10 16 C7 18 7 18 3 18 C3.18828772 20.44480079 3.18828772 20.44480079 4 23 C5.91666667 24.16666667 5.91666667 24.16666667 8 25 C10.49617831 28.74426746 10.26063055 31.67375072 10.1875 36 C10.1865332 37.08667969 10.1865332 37.08667969 10.18554688 38.1953125 C10.15907756 41.38339447 10.0144479 43.95665629 9 47 C8.278125 47.4125 7.55625 47.825 6.8125 48.25 C4.16271618 49.89875438 3.1443716 50.97066853 1.3125 53.375 C-4.50752615 60.3619857 -12.54333297 62.63605367 -21.30859375 63.72265625 C-38.02446559 64.97855773 -53.71009519 64.91544416 -68 55 C-71.8556995 51.43120373 -73.72245977 48.48862487 -74.6875 43.3125 C-73.83015428 39.18165242 -72.20748351 37.6461739 -69 35 C-70.03603751 32.86955668 -71.1126452 30.81059656 -72.32421875 28.7734375 C-75.87776705 22.52163619 -76.81869337 18.00803178 -75 11 C-73.48470185 7.28063182 -71.66870364 4.01679542 -69 1 C-68.34 1 -67.68 1 -67 1 C-67 0.34 -67 -0.32 -67 -1 C-50.35033209 -14.49271789 -16.41244901 -12.10795702 0 0 Z " fill="#FF3B3B" transform="translate(488,234)"/>
<path d="M0 0 C25.41 0 50.82 0 77 0 C77 5.61 77 11.22 77 17 C61.16 17 45.32 17 29 17 C29 20.3 29 23.6 29 27 C42.53 27 56.06 27 70 27 C70 31.29 70 35.58 70 40 C56.47 40 42.94 40 29 40 C29 43.3 29 46.6 29 50 C46.16 50 63.32 50 81 50 C81 55.61 81 61.22 81 67 C54.27 67 27.54 67 0 67 C0 44.89 0 22.78 0 0 Z " fill="#FF3434" transform="translate(134,228)"/>
<path d="M0 0 C9.24 0 18.48 0 28 0 C28.03738281 2.33835938 28.07476562 4.67671875 28.11328125 7.0859375 C28.15966305 9.38306347 28.21083554 11.68003713 28.26245117 13.97705078 C28.29544137 15.55768358 28.32355148 17.13842687 28.34643555 18.71923828 C28.17111014 34.40808591 28.17111014 34.40808591 35 48 C38.47796182 48.67592751 38.47796182 48.67592751 42.375 48.5625 C43.68210937 48.58441406 44.98921875 48.60632813 46.3359375 48.62890625 C50.87564134 47.84970335 52.24629051 46.63990328 55 43 C57.07971604 38.05586449 57.33580269 33.59374111 57.4140625 28.3203125 C57.43342865 27.50754852 57.4527948 26.69478455 57.4727478 25.85739136 C57.53217883 23.28003188 57.57878181 20.70262685 57.625 18.125 C57.66321343 16.36977298 57.70226709 14.61456403 57.7421875 12.859375 C57.83784999 8.57306476 57.92201449 4.28666681 58 0 C61.96930989 -0.02465881 65.93859034 -0.04284023 69.90795898 -0.05493164 C71.25920386 -0.05997057 72.61044326 -0.06680177 73.96166992 -0.07543945 C75.90020434 -0.08752419 77.838778 -0.09269828 79.77734375 -0.09765625 C81.52905884 -0.10551147 81.52905884 -0.10551147 83.31616211 -0.11352539 C86 0 86 0 87 1 C87.13869443 4.0700251 87.21326928 7.11581839 87.23828125 10.1875 C87.246353 11.11916992 87.25442474 12.05083984 87.26274109 13.01074219 C87.27660678 14.99135465 87.28731775 16.97199127 87.29516602 18.95263672 C87.31227125 21.95978508 87.35612128 24.96580312 87.40039062 27.97265625 C87.4105268 29.89842942 87.41904 31.82421195 87.42578125 33.75 C87.44328934 34.64098389 87.46079742 35.53196777 87.47883606 36.44995117 C87.45443114 43.59886894 85.79967275 49.74876713 81.0625 55.25 C80.381875 55.8275 79.70125 56.405 79 57 C78.195625 57.845625 77.39125 58.69125 76.5625 59.5625 C66.83189397 68.81844232 54.09777727 68.18064593 41.5 68.1875 C40.31535156 68.19974609 39.13070312 68.21199219 37.91015625 68.22460938 C27.17608344 68.24255933 17.76130172 66.82341539 9.3125 59.75 C2.23745745 51.33643589 -0.31947407 43.94868807 -0.1953125 33.0078125 C-0.1924826 32.06187225 -0.18965271 31.11593201 -0.18673706 30.1413269 C-0.17558932 27.13575306 -0.15049465 24.13048298 -0.125 21.125 C-0.11496321 19.08073349 -0.10583859 17.03646228 -0.09765625 14.9921875 C-0.07737376 9.99458197 -0.03821466 4.99762892 0 0 Z " fill="#FF3535" transform="translate(320,228)"/>
<path d="M0 0 C0.84640045 -0.00281982 1.6928009 -0.00563965 2.56484985 -0.00854492 C3.48539154 -0.00652069 4.40593323 -0.00449646 5.35437012 -0.00241089 C6.33054291 -0.00416321 7.3067157 -0.00591553 8.31246948 -0.00772095 C11.54455334 -0.01212679 14.77658256 -0.00920407 18.00866699 -0.00582886 C20.26106781 -0.0065027 22.51346857 -0.00747339 24.76586914 -0.00872803 C29.49361868 -0.01020364 34.22134934 -0.0080564 38.94909668 -0.00338745 C44.98329438 0.0022836 51.01744735 -0.00095331 57.05164337 -0.00695992 C61.70845876 -0.01059157 66.36526374 -0.00941457 71.02207947 -0.00683212 C73.24503078 -0.00616868 75.46798305 -0.00697073 77.69093323 -0.00931168 C104.3466557 -0.03120442 104.3466557 -0.03120442 109.72741699 1.12698364 C110.22241699 2.11698364 110.22241699 2.11698364 110.72741699 3.12698364 C101.81741699 3.12698364 92.90741699 3.12698364 83.72741699 3.12698364 C83.77382324 5.69350708 83.82022949 8.26003052 83.86804199 10.90432739 C83.89932222 13.41643297 83.92356158 15.92851606 83.94714355 18.44070435 C83.96714109 20.1738776 83.99434847 21.90698439 84.0291748 23.6399231 C84.4233525 43.77196946 84.4233525 43.77196946 77.94616699 51.15823364 C74.66876034 52.58921401 71.78936786 52.59893679 68.22741699 52.62698364 C66.26288574 52.67338989 66.26288574 52.67338989 64.25866699 52.72073364 C60.72741699 52.12698364 60.72741699 52.12698364 58.44616699 50.22073364 C52.98843904 40.39682332 53.35908321 30.42252461 53.53991699 19.50198364 C53.55499503 17.90954842 53.5686779 16.31709935 53.58093262 14.72463989 C53.61110833 10.8581254 53.66986581 6.99357026 53.72741699 3.12698364 C44.48741699 3.12698364 35.24741699 3.12698364 25.72741699 3.12698364 C25.75566203 9.03276487 25.79915043 14.93461885 25.88000488 20.83938599 C25.90303176 22.84288559 25.9175442 24.84650361 25.92297363 26.85012817 C25.87332704 45.17499667 25.87332704 45.17499667 34.16491699 61.12698364 C44.87894031 69.48914819 53.71634152 70.30731549 66.97741699 70.31448364 C68.74278809 70.33285278 68.74278809 70.33285278 70.54382324 70.35159302 C81.96867334 70.37065562 92.47115118 69.3263015 101.72741699 62.12698364 C102.38741699 62.12698364 103.04741699 62.12698364 103.72741699 62.12698364 C104.01616699 61.32260864 104.30491699 60.51823364 104.60241699 59.68948364 C105.72741699 57.12698364 105.72741699 57.12698364 107.72741699 56.12698364 C107.14723659 60.04320138 105.33991336 62.21629774 102.72741699 65.12698364 C86.53483108 76.07861045 63.25498417 75.05586428 44.72741699 71.56448364 C43.66164429 71.33789062 43.66164429 71.33789062 42.57434082 71.10671997 C37.94519389 70.14844823 34.36312924 70.3396895 29.72741699 71.12698364 C27.08230386 71.19213421 24.43572874 71.21289791 21.78991699 71.18948364 C21.10606934 71.18497192 20.42222168 71.18046021 19.71765137 71.17581177 C18.05420096 71.16417925 16.3907965 71.14625059 14.72741699 71.12698364 C14.72741699 70.79698364 14.72741699 70.46698364 14.72741699 70.12698364 C16.70741699 70.12698364 18.68741699 70.12698364 20.72741699 70.12698364 C19.98491699 69.40510864 19.24241699 68.68323364 18.47741699 67.93948364 C15.72741699 65.12698364 15.72741699 65.12698364 13.91491699 62.75198364 C10.87865273 59.10846653 7.32276543 56.20607692 3.72741699 53.12698364 C-10.37129545 40.8308463 -10.37129545 40.8308463 -12.27258301 35.12698364 C2.69054958 19.97388941 2.69054958 19.97388941 8.87585449 14.75588989 C12.6788938 11.4101781 16.18439864 7.74381488 19.72741699 4.12698364 C13.40152073 2.98742502 7.20463362 3.01271995 0.78991699 3.06448364 C-0.27549316 3.06899536 -1.34090332 3.07350708 -2.43859863 3.07815552 C-5.04998592 3.08986577 -7.66125425 3.1062664 -10.27258301 3.12698364 C-7.21091927 0.0653199 -4.19624651 0.00215864 0 0 Z " fill="#FFFBFB" transform="translate(294.2725830078125,224.87301635742188)"/>
<path d="M0 0 C-0.66 0.33 -1.32 0.66 -2 1 C-3.92339332 0.29475578 -5.84644162 -0.41562698 -7.734375 -1.2109375 C-14.95730837 -3.72651085 -22.70933518 -3.21980715 -30.25 -3.25 C-31.52230469 -3.270625 -32.79460937 -3.29125 -34.10546875 -3.3125 C-44.09230818 -3.35372534 -52.89587847 -2.85761308 -60.4375 4.3125 C-61.64212891 5.42044922 -61.64212891 5.42044922 -62.87109375 6.55078125 C-67.30771323 11.65492879 -68.51884138 16.00840164 -68.28125 22.6015625 C-67.88134029 26.01190361 -66.9963487 28.20511182 -65 31 C-60.63335273 34.41568853 -56.71421949 35.82441632 -51.3125 36.625 C-50.22449097 36.80264893 -50.22449097 36.80264893 -49.11450195 36.98388672 C-42.52091316 38.01814764 -35.88919707 38.73099901 -29.24536133 39.35400391 C-25.73968149 39.68425721 -22.39889115 40.08271117 -19 41 C-20.875 44.875 -20.875 44.875 -22 46 C-24.1221998 46.12569503 -26.24911345 46.17576773 -28.375 46.1875 C-30.11910156 46.20876953 -30.11910156 46.20876953 -31.8984375 46.23046875 C-35 46 -35 46 -38 44 C-41.19990054 43.63000663 -41.19990054 43.63000663 -44.85546875 43.5859375 C-45.51710526 43.56657135 -46.17874176 43.5472052 -46.86042786 43.5272522 C-48.96932164 43.46757313 -51.07827037 43.42111913 -53.1875 43.375 C-54.61916415 43.33680934 -56.05080559 43.29775697 -57.48242188 43.2578125 C-60.98807312 43.16188227 -64.49389445 43.07780803 -68 43 C-66.25 39.125 -66.25 39.125 -64 38 C-65.03603751 35.86955668 -66.1126452 33.81059656 -67.32421875 31.7734375 C-70.87776705 25.52163619 -71.81869337 21.00803178 -70 14 C-68.48470185 10.28063182 -66.66870364 7.01679542 -64 4 C-63.34 4 -62.68 4 -62 4 C-62 3.34 -62 2.68 -62 2 C-47.91115125 -9.41745665 -14.87170398 -10.37560743 0 0 Z " fill="#FFF5F5" transform="translate(483,231)"/>
<path d="M0 0 C1.9375 0.625 1.9375 0.625 4 2 C4.75 5.125 4.75 5.125 5 8 C2 10 2 10 -2 10 C-1.81171228 12.44480079 -1.81171228 12.44480079 -1 15 C0.91666667 16.16666667 0.91666667 16.16666667 3 17 C5.49617831 20.74426746 5.26063055 23.67375072 5.1875 28 C5.18685547 28.72445313 5.18621094 29.44890625 5.18554688 30.1953125 C5.15907756 33.38339447 5.0144479 35.95665629 4 39 C1.4375 40.1875 1.4375 40.1875 -1 41 C-0.67 40.2575 -0.34 39.515 0 38.75 C1.64731191 32.57258035 2.46116382 25.80543453 -0.5625 20 C-10.3339956 11.98236258 -21.36088629 11.49825289 -33.5 10.375 C-34.90890747 10.24013909 -36.3177623 10.104727 -37.7265625 9.96875 C-41.15045779 9.63947392 -44.5750062 9.31767136 -48 9 C-46.125 5.125 -46.125 5.125 -45 4 C-43.04469236 3.87451011 -41.08429521 3.82424637 -39.125 3.8125 C-37.52011719 3.79123047 -37.52011719 3.79123047 -35.8828125 3.76953125 C-33 4 -33 4 -30 6 C-26.70229658 6.37032217 -26.70229658 6.37032217 -22.92578125 6.4140625 C-21.90003242 6.44311172 -21.90003242 6.44311172 -20.8535614 6.4727478 C-18.67333375 6.53243997 -16.49305298 6.57888631 -14.3125 6.625 C-12.8326595 6.66318943 -11.352841 6.70224174 -9.87304688 6.7421875 C-6.2488995 6.83813202 -2.62458743 6.92220151 1 7 C0.505 3.535 0.505 3.535 0 0 Z " fill="#FFF5F5" transform="translate(493,242)"/>
<path d="M0 0 C-0.66 0.33 -1.32 0.66 -2 1 C-3.92339332 0.29475578 -5.84644162 -0.41562698 -7.734375 -1.2109375 C-14.95730837 -3.72651085 -22.70933518 -3.21980715 -30.25 -3.25 C-31.52230469 -3.270625 -32.79460937 -3.29125 -34.10546875 -3.3125 C-44.09230818 -3.35372534 -52.89587847 -2.85761308 -60.4375 4.3125 C-61.64212891 5.42044922 -61.64212891 5.42044922 -62.87109375 6.55078125 C-66.51406272 10.74186666 -68.42517411 14.53694586 -68.25 20.125 C-68.23453125 20.95257813 -68.2190625 21.78015625 -68.203125 22.6328125 C-68.01204905 24.8595822 -67.61286717 26.8549649 -67 29 C-67.66 29 -68.32 29 -69 29 C-71.7822281 24.09018571 -71.05242314 19.33056599 -70 14 C-68.48470185 10.28063182 -66.66870364 7.01679542 -64 4 C-63.34 4 -62.68 4 -62 4 C-62 3.34 -62 2.68 -62 2 C-47.91115125 -9.41745665 -14.87170398 -10.37560743 0 0 Z " fill="#FFECEC" transform="translate(483,231)"/>
<path d="M0 0 C0.495 1.485 0.495 1.485 1 3 C-3.33247724 10.22079539 -10.97789129 13.56119669 -18.86328125 15.8203125 C-26.21477339 17.20297725 -33.66752507 17.19118438 -41.125 17.25 C-42.1456958 17.25950684 -43.1663916 17.26901367 -44.21801758 17.27880859 C-45.1798999 17.27445801 -46.14178223 17.27010742 -47.1328125 17.265625 C-47.99793457 17.26336914 -48.86305664 17.26111328 -49.75439453 17.25878906 C-52 17 -52 17 -55 15 C-53.76080811 14.970271 -53.76080811 14.970271 -52.49658203 14.93994141 C-49.38388326 14.86108928 -46.27152265 14.7743779 -43.15917969 14.68261719 C-41.1687787 14.62624001 -39.1781351 14.57864607 -37.1875 14.53125 C-25.4564395 14.17576332 -14.53680439 13.41751452 -5 6 C-4.34 6 -3.68 6 -3 6 C-2.690625 5.195625 -2.38125 4.39125 -2.0625 3.5625 C-1 1 -1 1 0 0 Z " fill="#FFE7E7" transform="translate(401,281)"/>
<path d="M0 0 C0.33 0 0.66 0 1 0 C1.02519409 3.8736876 1.04308675 7.74734185 1.05493164 11.62109375 C1.06228369 13.56772545 1.07500578 15.51433456 1.08789062 17.4609375 C1.10975342 26.03115367 0.73307802 34.46257506 0 43 C-2.89709001 40.13942793 -5.58019699 37.28401838 -8 34 C-8 33.34 -8 32.68 -8 32 C-7.34 32 -6.68 32 -6 32 C-6 32.66 -6 33.32 -6 34 C-5.01 34 -4.02 34 -3 34 C-1.55736353 31.11472705 -1.79782639 28.53275985 -1.71875 25.3125 C-1.70034058 24.65419189 -1.68193115 23.99588379 -1.66296387 23.31762695 C-1.6041856 21.21184247 -1.55137701 19.1059773 -1.5 17 C-1.43239905 14.22899266 -1.35873325 11.45824665 -1.28125 8.6875 C-1.23581055 6.83705078 -1.23581055 6.83705078 -1.18945312 4.94921875 C-1 2 -1 2 0 0 Z " fill="#FFDDDD" transform="translate(90,228)"/>
<path d="M0 0 C2.66006857 0.20168553 3.81221051 0.82744782 5.78125 2.63671875 C6.63203125 3.65185547 6.63203125 3.65185547 7.5 4.6875 C8.10585938 5.409375 8.71171875 6.13125 9.3359375 6.875 C11.3795039 9.4846247 13.16204415 12.24306622 15 15 C16.6292274 16.70328319 18.28641357 18.38161281 20 20 C15.58051967 19.56933138 13.73641988 16.84185815 10.9375 13.625 C9.2921636 11.74956392 7.64638523 9.87451541 6 8 C5.50628906 7.36835938 5.01257813 6.73671875 4.50390625 6.0859375 C2.99485686 4.78196558 2.99485686 4.78196558 0.67578125 4.93359375 C-3.07439806 6.42819076 -5.24801053 9.06660109 -7.8125 12.0625 C-8.31458984 12.63033203 -8.81667969 13.19816406 -9.33398438 13.78320312 C-10.56627224 15.17979604 -11.78455648 16.5887232 -13 18 C-13.66 17.67 -14.32 17.34 -15 17 C-3.28571429 3.28571429 -3.28571429 3.28571429 0 0 Z " fill="#FFEFEF" transform="translate(266,276)"/>
<path d="M0 0 C0.99 0.495 0.99 0.495 2 1 C2 1.66 2 2.32 2 3 C2.66 3 3.32 3 4 3 C5.64044027 4.96732873 7.17239476 6.93945687 8.6875 9 C12.05132596 13.47826301 15.47699123 17.80395142 19.22265625 21.97265625 C21.38996151 24.44481324 23.43906781 27.00110536 25.5 29.5625 C29.09361805 33.98825945 32.85169876 38.09179336 37 42 C34 42 34 42 32.4921875 40.85546875 C19.76469633 27.72832206 19.76469633 27.72832206 16.92578125 21.73046875 C16.06168552 19.63871432 16.06168552 19.63871432 13 19 C11.39546696 17.00648925 9.90232272 15.02839703 8.4375 12.9375 C7.00686781 10.90133367 5.55085079 8.95107034 4 7 C3.34 7 2.68 7 2 7 C1.34 7.66 0.68 8.32 0 9 C0 6.03 0 3.06 0 0 Z " fill="#FFEEEE" transform="translate(49,252)"/>
<path d="M0 0 C0.99 0.33 1.98 0.66 3 1 C2.5153125 1.38929688 2.030625 1.77859375 1.53125 2.1796875 C-4.11273639 6.89024537 -8.57235946 12.14750705 -13 18 C-15.5 16.6875 -15.5 16.6875 -18 15 C-18 14.01 -18 13.02 -18 12 C-15.69 12.33 -13.38 12.66 -11 13 C-10.7421875 12.42636719 -10.484375 11.85273438 -10.21875 11.26171875 C-8.8894836 8.79490707 -7.35595983 6.90831904 -5.5 4.8125 C-4.8915625 4.11769531 -4.283125 3.42289063 -3.65625 2.70703125 C-2 1 -2 1 0 0 Z " fill="#FFF4F4" transform="translate(281,228)"/>
<path d="M0 0 C7.26 0 14.52 0 22 0 C22 0.33 22 0.66 22 1 C19.27123692 1.33695862 16.54206837 1.66968429 13.8125 2 C12.65911133 2.14308594 12.65911133 2.14308594 11.48242188 2.2890625 C7.63071189 2.75192894 3.88829149 3.12467468 0 3 C0 2.01 0 1.02 0 0 Z " fill="#FFECEC" transform="translate(222,225)"/>
<path d="M0 0 C0.66 0 1.32 0 2 0 C2 0.66 2 1.32 2 2 C4.16874252 1.49396008 5.99967627 1.00016187 8 0 C8 3.63 8 7.26 8 11 C5.07130346 8.17589976 2.41572077 5.27847819 0 2 C0 1.34 0 0.68 0 0 Z " fill="#FFF1F1" transform="translate(82,260)"/>
<path d="M0 0 C1.9375 0.625 1.9375 0.625 4 2 C4.75 5.125 4.75 5.125 5 8 C4.01 8.66 3.02 9.32 2 10 C1.01 9.01 0.02 8.02 -1 7 C-0.34 7 0.32 7 1 7 C0.67 4.69 0.34 2.38 0 0 Z " fill="#FFFEFE" transform="translate(493,242)"/>
<path d="M0 0 C0.33 0.66 0.66 1.32 1 2 C-0.65 3.65 -2.3 5.3 -4 7 C-5.65 5.68 -7.3 4.36 -9 3 C-8.67 2.34 -8.34 1.68 -8 1 C-6.8553125 1.309375 -6.8553125 1.309375 -5.6875 1.625 C-2.78114056 2.33391203 -2.78114056 2.33391203 0 0 Z " fill="#FFE5E5" transform="translate(271,239)"/>
<path d="M0 0 C0.66 1.32 1.32 2.64 2 4 C1.34 4.99 0.68 5.98 0 7 C-0.38133299 5.0085944 -0.71325582 3.00720923 -1 1 C-0.67 0.67 -0.34 0.34 0 0 Z " fill="#FFFFFF" transform="translate(496,252)"/>
</svg>
